<svg width="28" height="28" viewBox="0 0 28 28" fill="none" xmlns="http://www.w3.org/2000/svg">
<path fill-rule="evenodd" clip-rule="evenodd" d="M14.352 27.2068C21.751 27.2068 27.749 21.1934 27.749 13.7755C27.749 6.35764 21.751 0.344238 14.352 0.344238C6.9531 0.344238 0.955078 6.35764 0.955078 13.7755C0.955078 21.1934 6.9531 27.2068 14.352 27.2068ZM19.5257 13.0693C19.9157 13.4604 19.9149 14.0935 19.5239 14.4835C19.1329 14.8736 18.4997 14.8728 18.1097 14.4817L15.352 11.717L15.352 18.2526C15.352 18.8049 14.9043 19.2526 14.352 19.2526C13.7997 19.2526 13.352 18.8049 13.352 18.2526L13.352 11.717L10.5944 14.4817C10.2044 14.8728 9.5712 14.8736 9.18018 14.4835C8.78915 14.0935 8.78834 13.4604 9.17836 13.0693L13.644 8.59224C13.8316 8.40415 14.0864 8.29844 14.352 8.29844C14.6177 8.29844 14.8724 8.40415 15.06 8.59224L19.5257 13.0693Z" fill="#D2D2D2"/>
</svg>
